<svg width="101" height="99" viewBox="0 0 101 99" fill="none" xmlns="http://www.w3.org/2000/svg">
<path d="M21.652 45.8172C21.0857 45.2509 20.7001 44.5295 20.5438 43.744C20.3876 42.9586 20.4677 42.1445 20.7742 41.4046C21.0806 40.6647 21.5996 40.0323 22.2655 39.5874C22.9313 39.1425 23.7142 38.905 24.515 38.905C25.3158 38.905 26.0987 39.1425 26.7645 39.5874C27.4304 40.0323 27.9494 40.6647 28.2558 41.4046C28.5623 42.1445 28.6424 42.9586 28.4862 43.744C28.3299 44.5295 27.9443 45.2509 27.378 45.8172C27.0022 46.1934 26.5559 46.4918 26.0646 46.6954C25.5733 46.8991 25.0468 47.0039 24.515 47.0039C23.9832 47.0039 23.4567 46.8991 22.9654 46.6954C22.4742 46.4918 22.0279 46.1934 21.652 45.8172Z" fill="#4BAF51"/>
<path d="M31.884 35.5852C31.3177 35.019 30.9321 34.2975 30.7758 33.5121C30.6196 32.7267 30.6997 31.9125 31.0062 31.1727C31.3126 30.4328 31.8316 29.8004 32.4975 29.3555C33.1633 28.9106 33.9462 28.6731 34.747 28.6731C35.5478 28.6731 36.3307 28.9106 36.9965 29.3555C37.6624 29.8004 38.1814 30.4328 38.4878 31.1727C38.7943 31.9125 38.8744 32.7267 38.7182 33.5121C38.5619 34.2975 38.1763 35.019 37.61 35.5852C36.8507 36.3445 35.8208 36.7711 34.747 36.7711C33.6732 36.7711 32.6433 36.3445 31.884 35.5852Z" fill="#4BAF51"/>
<path d="M31.884 45.8172C31.3177 45.2509 30.9321 44.5295 30.7758 43.744C30.6196 42.9586 30.6997 42.1445 31.0062 41.4046C31.3126 40.6647 31.8316 40.0323 32.4975 39.5874C33.1633 39.1425 33.9462 38.905 34.747 38.905C35.5478 38.905 36.3307 39.1425 36.9965 39.5874C37.6624 40.0323 38.1814 40.6647 38.4878 41.4046C38.7943 42.1445 38.8744 42.9586 38.7182 43.744C38.5619 44.5295 38.1763 45.2509 37.61 45.8172C36.8507 46.5765 35.8208 47.003 34.747 47.003C33.6732 47.003 32.6433 46.5765 31.884 45.8172Z" fill="#4BAF51"/>
<path d="M52.35 45.8172C51.7837 45.2509 51.3981 44.5295 51.2418 43.744C51.0856 42.9586 51.1657 42.1445 51.4722 41.4046C51.7786 40.6647 52.2976 40.0323 52.9635 39.5874C53.6293 39.1425 54.4122 38.905 55.213 38.905C56.0138 38.905 56.7967 39.1425 57.4625 39.5874C58.1284 40.0323 58.6474 40.6647 58.9538 41.4046C59.2603 42.1445 59.3404 42.9586 59.1842 43.744C59.0279 44.5295 58.6423 45.2509 58.076 45.8172C57.3167 46.5765 56.2868 47.003 55.213 47.003C54.1392 47.003 53.1093 46.5765 52.35 45.8172Z" fill="#4BAF51"/>
<path d="M11.419 56.0503C10.8527 55.4841 10.467 54.7626 10.3108 53.9772C10.1545 53.1917 10.2347 52.3776 10.5412 51.6377C10.8476 50.8979 11.3666 50.2655 12.0324 49.8206C12.6983 49.3757 13.4811 49.1382 14.282 49.1382C15.0828 49.1382 15.8656 49.3757 16.5315 49.8206C17.1974 50.2655 17.7163 50.8979 18.0228 51.6377C18.3292 52.3776 18.4094 53.1917 18.2532 53.9772C18.0969 54.7626 17.7113 55.4841 17.145 56.0503C16.3856 56.8096 15.3558 57.2362 14.282 57.2362C13.2081 57.2362 12.1783 56.8096 11.419 56.0503Z" fill="#4BAF51"/>
<path d="M21.652 56.0503C21.0857 55.4841 20.7001 54.7626 20.5438 53.9772C20.3876 53.1917 20.4677 52.3776 20.7742 51.6377C21.0806 50.8979 21.5996 50.2655 22.2655 49.8206C22.9313 49.3757 23.7142 49.1382 24.515 49.1382C25.3158 49.1382 26.0987 49.3757 26.7645 49.8206C27.4304 50.2655 27.9494 50.8979 28.2558 51.6377C28.5623 52.3776 28.6424 53.1917 28.4862 53.9772C28.3299 54.7626 27.9443 55.4841 27.378 56.0503C27.0022 56.4265 26.5559 56.725 26.0646 56.9286C25.5733 57.1322 25.0468 57.237 24.515 57.237C23.9832 57.237 23.4567 57.1322 22.9654 56.9286C22.4742 56.725 22.0279 56.4265 21.652 56.0503Z" fill="#4BAF51"/>
<path d="M31.884 56.0503C31.3177 55.4841 30.9321 54.7626 30.7758 53.9772C30.6196 53.1917 30.6997 52.3776 31.0062 51.6377C31.3126 50.8979 31.8316 50.2655 32.4975 49.8206C33.1633 49.3757 33.9462 49.1382 34.747 49.1382C35.5478 49.1382 36.3307 49.3757 36.9965 49.8206C37.6624 50.2655 38.1814 50.8979 38.4878 51.6377C38.7943 52.3776 38.8744 53.1917 38.7182 53.9772C38.5619 54.7626 38.1763 55.4841 37.61 56.0503C36.8507 56.8096 35.8208 57.2362 34.747 57.2362C33.6732 57.2362 32.6433 56.8096 31.884 56.0503Z" fill="#4BAF51"/>
<path d="M42.117 56.0503C41.5507 55.4841 41.1651 54.7626 41.0088 53.9772C40.8526 53.1917 40.9328 52.3776 41.2392 51.6377C41.5457 50.8979 42.0646 50.2655 42.7305 49.8206C43.3964 49.3757 44.1792 49.1382 44.98 49.1382C45.7809 49.1382 46.5637 49.3757 47.2296 49.8206C47.8954 50.2655 48.4144 50.8979 48.7208 51.6377C49.0273 52.3776 49.1075 53.1917 48.9512 53.9772C48.795 54.7626 48.4093 55.4841 47.843 56.0503C47.0837 56.8096 46.0539 57.2362 44.98 57.2362C43.9062 57.2362 42.8764 56.8096 42.117 56.0503Z" fill="#4BAF51"/>
<path d="M52.35 56.0503C51.7837 55.4841 51.3981 54.7626 51.2418 53.9772C51.0856 53.1917 51.1657 52.3776 51.4722 51.6377C51.7786 50.8979 52.2976 50.2655 52.9635 49.8206C53.6293 49.3757 54.4122 49.1382 55.213 49.1382C56.0138 49.1382 56.7967 49.3757 57.4625 49.8206C58.1284 50.2655 58.6474 50.8979 58.9538 51.6377C59.2603 52.3776 59.3404 53.1917 59.1842 53.9772C59.0279 54.7626 58.6423 55.4841 58.076 56.0503C57.3167 56.8096 56.2868 57.2362 55.213 57.2362C54.1392 57.2362 53.1093 56.8096 52.35 56.0503Z" fill="#4BAF51"/>
<path d="M1.186 66.2823C0.619718 65.716 0.234067 64.9945 0.0778178 64.2091C-0.078431 63.4237 0.00174025 62.6095 0.308193 61.8697C0.614646 61.1298 1.13362 60.4974 1.79948 60.0525C2.46534 59.6076 3.24818 59.3701 4.049 59.3701C4.84983 59.3701 5.63267 59.6076 6.29853 60.0525C6.96439 60.4974 7.48336 61.1298 7.78981 61.8697C8.09626 62.6095 8.17643 63.4237 8.02019 64.2091C7.86394 64.9945 7.47829 65.716 6.912 66.2823C6.15267 67.0416 5.12283 67.4681 4.049 67.4681C2.97518 67.4681 1.94533 67.0416 1.186 66.2823Z" fill="#4BAF51"/>
<path d="M11.419 66.2823C10.8527 65.716 10.467 64.9945 10.3108 64.2091C10.1545 63.4237 10.2347 62.6095 10.5412 61.8697C10.8476 61.1298 11.3666 60.4974 12.0324 60.0525C12.6983 59.6076 13.4811 59.3701 14.282 59.3701C15.0828 59.3701 15.8656 59.6076 16.5315 60.0525C17.1974 60.4974 17.7163 61.1298 18.0228 61.8697C18.3292 62.6095 18.4094 63.4237 18.2532 64.2091C18.0969 64.9945 17.7113 65.716 17.145 66.2823C16.3856 67.0416 15.3558 67.4681 14.282 67.4681C13.2081 67.4681 12.1783 67.0416 11.419 66.2823Z" fill="#4BAF51"/>
<path d="M21.652 66.2823C21.0857 65.716 20.7001 64.9945 20.5438 64.2091C20.3876 63.4237 20.4677 62.6095 20.7742 61.8697C21.0806 61.1298 21.5996 60.4974 22.2655 60.0525C22.9313 59.6076 23.7142 59.3701 24.515 59.3701C25.3158 59.3701 26.0987 59.6076 26.7645 60.0525C27.4304 60.4974 27.9494 61.1298 28.2558 61.8697C28.5623 62.6095 28.6424 63.4237 28.4862 64.2091C28.3299 64.9945 27.9443 65.716 27.378 66.2823C27.0022 66.6585 26.5559 66.9569 26.0646 67.1605C25.5733 67.3641 25.0468 67.4689 24.515 67.4689C23.9832 67.4689 23.4567 67.3641 22.9654 67.1605C22.4742 66.9569 22.0279 66.6585 21.652 66.2823Z" fill="#4BAF51"/>
<path d="M31.884 66.2823C31.3177 65.716 30.9321 64.9945 30.7758 64.2091C30.6196 63.4237 30.6997 62.6095 31.0062 61.8697C31.3126 61.1298 31.8316 60.4974 32.4975 60.0525C33.1633 59.6076 33.9462 59.3701 34.747 59.3701C35.5478 59.3701 36.3307 59.6076 36.9965 60.0525C37.6624 60.4974 38.1814 61.1298 38.4878 61.8697C38.7943 62.6095 38.8744 63.4237 38.7182 64.2091C38.5619 64.9945 38.1763 65.716 37.61 66.2823C36.8507 67.0416 35.8208 67.4681 34.747 67.4681C33.6732 67.4681 32.6433 67.0416 31.884 66.2823Z" fill="#4BAF51"/>
<path d="M42.117 66.2823C41.5507 65.716 41.1651 64.9945 41.0088 64.2091C40.8526 63.4237 40.9328 62.6095 41.2392 61.8697C41.5457 61.1298 42.0646 60.4974 42.7305 60.0525C43.3964 59.6076 44.1792 59.3701 44.98 59.3701C45.7809 59.3701 46.5637 59.6076 47.2296 60.0525C47.8954 60.4974 48.4144 61.1298 48.7208 61.8697C49.0273 62.6095 49.1075 63.4237 48.9512 64.2091C48.795 64.9945 48.4093 65.716 47.843 66.2823C47.0837 67.0416 46.0539 67.4681 44.98 67.4681C43.9062 67.4681 42.8764 67.0416 42.117 66.2823Z" fill="#4BAF51"/>
<path d="M52.35 66.2823C51.7837 65.716 51.3981 64.9945 51.2418 64.2091C51.0856 63.4237 51.1657 62.6095 51.4722 61.8697C51.7786 61.1298 52.2976 60.4974 52.9635 60.0525C53.6293 59.6076 54.4122 59.3701 55.213 59.3701C56.0138 59.3701 56.7967 59.6076 57.4625 60.0525C58.1284 60.4974 58.6474 61.1298 58.9538 61.8697C59.2603 62.6095 59.3404 63.4237 59.1842 64.2091C59.0279 64.9945 58.6423 65.716 58.076 66.2823C57.3167 67.0416 56.2868 67.4681 55.213 67.4681C54.1392 67.4681 53.1093 67.0416 52.35 66.2823Z" fill="#4BAF51"/>
<path d="M62.583 56.0503C62.0167 55.4841 61.631 54.7626 61.4748 53.9772C61.3185 53.1917 61.3987 52.3776 61.7052 51.6377C62.0116 50.8979 62.5306 50.2655 63.1964 49.8206C63.8623 49.3757 64.6451 49.1382 65.446 49.1382C66.2468 49.1382 67.0296 49.3757 67.6955 49.8206C68.3614 50.2655 68.8803 50.8979 69.1868 51.6377C69.4932 52.3776 69.5734 53.1917 69.4172 53.9772C69.2609 54.7626 68.8753 55.4841 68.309 56.0503C67.5496 56.8096 66.5198 57.2362 65.446 57.2362C64.3721 57.2362 63.3423 56.8096 62.583 56.0503Z" fill="#4BAF51"/>
<path d="M62.583 66.2823C62.0167 65.716 61.631 64.9945 61.4748 64.2091C61.3185 63.4237 61.3987 62.6095 61.7052 61.8697C62.0116 61.1298 62.5306 60.4974 63.1964 60.0525C63.8623 59.6076 64.6451 59.3701 65.446 59.3701C66.2468 59.3701 67.0296 59.6076 67.6955 60.0525C68.3614 60.4974 68.8803 61.1298 69.1868 61.8697C69.4932 62.6095 69.5734 63.4237 69.4172 64.2091C69.2609 64.9945 68.8753 65.716 68.309 66.2823C67.5496 67.0416 66.5198 67.4681 65.446 67.4681C64.3721 67.4681 63.3423 67.0416 62.583 66.2823Z" fill="#4BAF51"/>
<path d="M1.186 76.5142C0.619718 75.9479 0.234067 75.2265 0.0778178 74.441C-0.078431 73.6556 0.00174025 72.8415 0.308193 72.1016C0.614646 71.3617 1.13362 70.7294 1.79948 70.2844C2.46534 69.8395 3.24818 69.6021 4.049 69.6021C4.84983 69.6021 5.63267 69.8395 6.29853 70.2844C6.96439 70.7294 7.48336 71.3617 7.78981 72.1016C8.09626 72.8415 8.17643 73.6556 8.02019 74.441C7.86394 75.2265 7.47829 75.9479 6.912 76.5142C6.15267 77.2735 5.12283 77.7001 4.049 77.7001C2.97518 77.7001 1.94533 77.2735 1.186 76.5142Z" fill="#4BAF51"/>
<path d="M11.419 76.5142C10.8527 75.9479 10.467 75.2265 10.3108 74.441C10.1545 73.6556 10.2347 72.8415 10.5412 72.1016C10.8476 71.3617 11.3666 70.7294 12.0324 70.2844C12.6983 69.8395 13.4811 69.6021 14.282 69.6021C15.0828 69.6021 15.8656 69.8395 16.5315 70.2844C17.1974 70.7294 17.7163 71.3617 18.0228 72.1016C18.3292 72.8415 18.4094 73.6556 18.2532 74.441C18.0969 75.2265 17.7113 75.9479 17.145 76.5142C16.3856 77.2735 15.3558 77.7001 14.282 77.7001C13.2081 77.7001 12.1783 77.2735 11.419 76.5142Z" fill="#4BAF51"/>
<path d="M21.652 76.5142C21.0857 75.9479 20.7001 75.2265 20.5438 74.441C20.3876 73.6556 20.4677 72.8415 20.7742 72.1016C21.0806 71.3617 21.5996 70.7294 22.2655 70.2844C22.9313 69.8395 23.7142 69.6021 24.515 69.6021C25.3158 69.6021 26.0987 69.8395 26.7645 70.2844C27.4304 70.7294 27.9494 71.3617 28.2558 72.1016C28.5623 72.8415 28.6424 73.6556 28.4862 74.441C28.3299 75.2265 27.9443 75.9479 27.378 76.5142C27.0022 76.8904 26.5559 77.1888 26.0646 77.3925C25.5733 77.5961 25.0468 77.7009 24.515 77.7009C23.9832 77.7009 23.4567 77.5961 22.9654 77.3925C22.4742 77.1888 22.0279 76.8904 21.652 76.5142Z" fill="#4BAF51"/>
<path d="M31.884 76.5142C31.3177 75.9479 30.9321 75.2265 30.7758 74.441C30.6196 73.6556 30.6997 72.8415 31.0062 72.1016C31.3126 71.3617 31.8316 70.7294 32.4975 70.2844C33.1633 69.8395 33.9462 69.6021 34.747 69.6021C35.5478 69.6021 36.3307 69.8395 36.9965 70.2844C37.6624 70.7294 38.1814 71.3617 38.4878 72.1016C38.7943 72.8415 38.8744 73.6556 38.7182 74.441C38.5619 75.2265 38.1763 75.9479 37.61 76.5142C36.8507 77.2735 35.8208 77.7001 34.747 77.7001C33.6732 77.7001 32.6433 77.2735 31.884 76.5142Z" fill="#4BAF51"/>
<path d="M42.117 76.5142C41.5507 75.9479 41.1651 75.2265 41.0088 74.441C40.8526 73.6556 40.9328 72.8415 41.2392 72.1016C41.5457 71.3617 42.0646 70.7294 42.7305 70.2844C43.3964 69.8395 44.1792 69.6021 44.98 69.6021C45.7809 69.6021 46.5637 69.8395 47.2296 70.2844C47.8954 70.7294 48.4144 71.3617 48.7208 72.1016C49.0273 72.8415 49.1075 73.6556 48.9512 74.441C48.795 75.2265 48.4093 75.9479 47.843 76.5142C47.0837 77.2735 46.0539 77.7001 44.98 77.7001C43.9062 77.7001 42.8764 77.2735 42.117 76.5142Z" fill="#4BAF51"/>
<path d="M52.35 76.5142C51.7837 75.9479 51.3981 75.2265 51.2418 74.441C51.0856 73.6556 51.1657 72.8415 51.4722 72.1016C51.7786 71.3617 52.2976 70.7294 52.9635 70.2844C53.6293 69.8395 54.4122 69.6021 55.213 69.6021C56.0138 69.6021 56.7967 69.8395 57.4625 70.2844C58.1284 70.7294 58.6474 71.3617 58.9538 72.1016C59.2603 72.8415 59.3404 73.6556 59.1842 74.441C59.0279 75.2265 58.6423 75.9479 58.076 76.5142C57.3167 77.2735 56.2868 77.7001 55.213 77.7001C54.1392 77.7001 53.1093 77.2735 52.35 76.5142Z" fill="#4BAF51"/>
<path d="M62.583 76.5142C62.0167 75.9479 61.631 75.2265 61.4748 74.441C61.3185 73.6556 61.3987 72.8415 61.7052 72.1016C62.0116 71.3617 62.5306 70.7294 63.1964 70.2844C63.8623 69.8395 64.6451 69.6021 65.446 69.6021C66.2468 69.6021 67.0296 69.8395 67.6955 70.2844C68.3614 70.7294 68.8803 71.3617 69.1868 72.1016C69.4932 72.8415 69.5734 73.6556 69.4172 74.441C69.2609 75.2265 68.8753 75.9479 68.309 76.5142C67.5496 77.2735 66.5198 77.7001 65.446 77.7001C64.3721 77.7001 63.3423 77.2735 62.583 76.5142Z" fill="#4BAF51"/>
<path d="M1.186 86.7474C0.619718 86.1811 0.234067 85.4596 0.0778178 84.6742C-0.078431 83.8888 0.00174025 83.0746 0.308193 82.3348C0.614646 81.5949 1.13362 80.9625 1.79948 80.5176C2.46534 80.0727 3.24818 79.8352 4.049 79.8352C4.84983 79.8352 5.63267 80.0727 6.29853 80.5176C6.96439 80.9625 7.48336 81.5949 7.78981 82.3348C8.09626 83.0746 8.17643 83.8888 8.02019 84.6742C7.86394 85.4596 7.47829 86.1811 6.912 86.7474C6.15267 87.5066 5.12283 87.9332 4.049 87.9332C2.97518 87.9332 1.94533 87.5066 1.186 86.7474Z" fill="#4BAF51"/>
<path d="M11.419 86.7474C10.8527 86.1811 10.467 85.4596 10.3108 84.6742C10.1545 83.8888 10.2347 83.0746 10.5412 82.3348C10.8476 81.5949 11.3666 80.9625 12.0324 80.5176C12.6983 80.0727 13.4811 79.8352 14.282 79.8352C15.0828 79.8352 15.8656 80.0727 16.5315 80.5176C17.1974 80.9625 17.7163 81.5949 18.0228 82.3348C18.3292 83.0746 18.4094 83.8888 18.2532 84.6742C18.0969 85.4596 17.7113 86.1811 17.145 86.7474C16.3856 87.5066 15.3558 87.9332 14.282 87.9332C13.2081 87.9332 12.1783 87.5066 11.419 86.7474Z" fill="#4BAF51"/>
<path d="M21.652 86.7474C21.0857 86.1811 20.7001 85.4596 20.5438 84.6742C20.3876 83.8888 20.4677 83.0746 20.7742 82.3348C21.0806 81.5949 21.5996 80.9625 22.2655 80.5176C22.9313 80.0727 23.7142 79.8352 24.515 79.8352C25.3158 79.8352 26.0987 80.0727 26.7645 80.5176C27.4304 80.9625 27.9494 81.5949 28.2558 82.3348C28.5623 83.0746 28.6424 83.8888 28.4862 84.6742C28.3299 85.4596 27.9443 86.1811 27.378 86.7474C27.0022 87.1236 26.5559 87.422 26.0646 87.6256C25.5733 87.8292 25.0468 87.934 24.515 87.934C23.9832 87.934 23.4567 87.8292 22.9654 87.6256C22.4742 87.422 22.0279 87.1236 21.652 86.7474Z" fill="#4BAF51"/>
<path d="M31.884 86.7474C31.3177 86.1811 30.9321 85.4596 30.7758 84.6742C30.6196 83.8888 30.6997 83.0746 31.0062 82.3348C31.3126 81.5949 31.8316 80.9625 32.4975 80.5176C33.1633 80.0727 33.9462 79.8352 34.747 79.8352C35.5478 79.8352 36.3307 80.0727 36.9965 80.5176C37.6624 80.9625 38.1814 81.5949 38.4878 82.3348C38.7943 83.0746 38.8744 83.8888 38.7182 84.6742C38.5619 85.4596 38.1763 86.1811 37.61 86.7474C36.8507 87.5066 35.8208 87.9332 34.747 87.9332C33.6732 87.9332 32.6433 87.5066 31.884 86.7474Z" fill="#4BAF51"/>
<path d="M42.117 86.7474C41.5507 86.1811 41.1651 85.4596 41.0088 84.6742C40.8526 83.8888 40.9328 83.0746 41.2392 82.3348C41.5457 81.5949 42.0646 80.9625 42.7305 80.5176C43.3964 80.0727 44.1792 79.8352 44.98 79.8352C45.7809 79.8352 46.5637 80.0727 47.2296 80.5176C47.8954 80.9625 48.4144 81.5949 48.7208 82.3348C49.0273 83.0746 49.1075 83.8888 48.9512 84.6742C48.795 85.4596 48.4093 86.1811 47.843 86.7474C47.0837 87.5066 46.0539 87.9332 44.98 87.9332C43.9062 87.9332 42.8764 87.5066 42.117 86.7474Z" fill="#4BAF51"/>
<path d="M52.35 86.7474C51.7837 86.1811 51.3981 85.4596 51.2418 84.6742C51.0856 83.8888 51.1657 83.0746 51.4722 82.3348C51.7786 81.5949 52.2976 80.9625 52.9635 80.5176C53.6293 80.0727 54.4122 79.8352 55.213 79.8352C56.0138 79.8352 56.7967 80.0727 57.4625 80.5176C58.1284 80.9625 58.6474 81.5949 58.9538 82.3348C59.2603 83.0746 59.3404 83.8888 59.1842 84.6742C59.0279 85.4596 58.6423 86.1811 58.076 86.7474C57.3167 87.5066 56.2868 87.9332 55.213 87.9332C54.1392 87.9332 53.1093 87.5066 52.35 86.7474Z" fill="#4BAF51"/>
<path d="M62.583 86.7474C62.0167 86.1811 61.631 85.4596 61.4748 84.6742C61.3185 83.8888 61.3987 83.0746 61.7052 82.3348C62.0116 81.5949 62.5306 80.9625 63.1964 80.5176C63.8623 80.0727 64.6451 79.8352 65.446 79.8352C66.2468 79.8352 67.0296 80.0727 67.6955 80.5176C68.3614 80.9625 68.8803 81.5949 69.1868 82.3348C69.4932 83.0746 69.5734 83.8888 69.4172 84.6742C69.2609 85.4596 68.8753 86.1811 68.309 86.7474C67.5496 87.5066 66.5198 87.9332 65.446 87.9332C64.3721 87.9332 63.3423 87.5066 62.583 86.7474Z" fill="#4BAF51"/>
<path d="M72.815 56.0503C72.2487 55.4841 71.8631 54.7626 71.7068 53.9772C71.5506 53.1917 71.6308 52.3776 71.9372 51.6377C72.2437 50.8979 72.7626 50.2655 73.4285 49.8206C74.0944 49.3757 74.8772 49.1382 75.678 49.1382C76.4789 49.1382 77.2617 49.3757 77.9276 49.8206C78.5934 50.2655 79.1124 50.8979 79.4188 51.6377C79.7253 52.3776 79.8055 53.1917 79.6492 53.9772C79.493 54.7626 79.1073 55.4841 78.541 56.0503C77.7817 56.8096 76.7519 57.2362 75.678 57.2362C74.6042 57.2362 73.5744 56.8096 72.815 56.0503Z" fill="#4BAF51"/>
<path d="M72.815 66.2823C72.2487 65.716 71.8631 64.9945 71.7068 64.2091C71.5506 63.4237 71.6308 62.6095 71.9372 61.8697C72.2437 61.1298 72.7626 60.4974 73.4285 60.0525C74.0944 59.6076 74.8772 59.3701 75.678 59.3701C76.4789 59.3701 77.2617 59.6076 77.9276 60.0525C78.5934 60.4974 79.1124 61.1298 79.4188 61.8697C79.7253 62.6095 79.8055 63.4237 79.6492 64.2091C79.493 64.9945 79.1073 65.716 78.541 66.2823C77.7817 67.0416 76.7519 67.4681 75.678 67.4681C74.6042 67.4681 73.5744 67.0416 72.815 66.2823Z" fill="#4BAF51"/>
<path d="M72.815 76.5142C72.2487 75.9479 71.8631 75.2265 71.7068 74.441C71.5506 73.6556 71.6308 72.8415 71.9372 72.1016C72.2437 71.3617 72.7626 70.7294 73.4285 70.2844C74.0944 69.8395 74.8772 69.6021 75.678 69.6021C76.4789 69.6021 77.2617 69.8395 77.9276 70.2844C78.5934 70.7294 79.1124 71.3617 79.4188 72.1016C79.7253 72.8415 79.8055 73.6556 79.6492 74.441C79.493 75.2265 79.1073 75.9479 78.541 76.5142C77.7817 77.2735 76.7519 77.7001 75.678 77.7001C74.6042 77.7001 73.5744 77.2735 72.815 76.5142Z" fill="#4BAF51"/>
<path d="M72.815 86.7474C72.2487 86.1811 71.8631 85.4596 71.7068 84.6742C71.5506 83.8888 71.6308 83.0746 71.9372 82.3348C72.2437 81.5949 72.7626 80.9625 73.4285 80.5176C74.0944 80.0727 74.8772 79.8352 75.678 79.8352C76.4789 79.8352 77.2617 80.0727 77.9276 80.5176C78.5934 80.9625 79.1124 81.5949 79.4188 82.3348C79.7253 83.0746 79.8055 83.8888 79.6492 84.6742C79.493 85.4596 79.1073 86.1811 78.541 86.7474C77.7817 87.5066 76.7519 87.9332 75.678 87.9332C74.6042 87.9332 73.5744 87.5066 72.815 86.7474Z" fill="#4BAF51"/>
<path d="M1.186 96.9793C0.619718 96.413 0.234067 95.6916 0.0778178 94.9061C-0.078431 94.1207 0.00174025 93.3066 0.308193 92.5667C0.614646 91.8268 1.13362 91.1945 1.79948 90.7495C2.46534 90.3046 3.24818 90.0671 4.049 90.0671C4.84983 90.0671 5.63267 90.3046 6.29853 90.7495C6.96439 91.1945 7.48336 91.8268 7.78981 92.5667C8.09626 93.3066 8.17643 94.1207 8.02019 94.9061C7.86394 95.6916 7.47829 96.413 6.912 96.9793C6.15267 97.7386 5.12283 98.1651 4.049 98.1651C2.97518 98.1651 1.94533 97.7386 1.186 96.9793Z" fill="#4BAF51"/>
<path d="M11.419 96.9793C10.8527 96.413 10.467 95.6916 10.3108 94.9061C10.1545 94.1207 10.2347 93.3066 10.5412 92.5667C10.8476 91.8268 11.3666 91.1945 12.0324 90.7495C12.6983 90.3046 13.4811 90.0671 14.282 90.0671C15.0828 90.0671 15.8656 90.3046 16.5315 90.7495C17.1974 91.1945 17.7163 91.8268 18.0228 92.5667C18.3292 93.3066 18.4094 94.1207 18.2532 94.9061C18.0969 95.6916 17.7113 96.413 17.145 96.9793C16.3856 97.7386 15.3558 98.1651 14.282 98.1651C13.2081 98.1651 12.1783 97.7386 11.419 96.9793Z" fill="#4BAF51"/>
<path d="M21.652 96.9793C21.0857 96.413 20.7001 95.6916 20.5438 94.9061C20.3876 94.1207 20.4677 93.3066 20.7742 92.5667C21.0806 91.8268 21.5996 91.1945 22.2655 90.7495C22.9313 90.3046 23.7142 90.0671 24.515 90.0671C25.3158 90.0671 26.0987 90.3046 26.7645 90.7495C27.4304 91.1945 27.9494 91.8268 28.2558 92.5667C28.5623 93.3066 28.6424 94.1207 28.4862 94.9061C28.3299 95.6916 27.9443 96.413 27.378 96.9793C27.0022 97.3555 26.5559 97.6539 26.0646 97.8575C25.5733 98.0612 25.0468 98.166 24.515 98.166C23.9832 98.166 23.4567 98.0612 22.9654 97.8575C22.4742 97.6539 22.0279 97.3555 21.652 96.9793Z" fill="#4BAF51"/>
<path d="M31.884 96.9793C31.3177 96.413 30.9321 95.6916 30.7758 94.9061C30.6196 94.1207 30.6997 93.3066 31.0062 92.5667C31.3126 91.8268 31.8316 91.1945 32.4975 90.7495C33.1633 90.3046 33.9462 90.0671 34.747 90.0671C35.5478 90.0671 36.3307 90.3046 36.9965 90.7495C37.6624 91.1945 38.1814 91.8268 38.4878 92.5667C38.7943 93.3066 38.8744 94.1207 38.7182 94.9061C38.5619 95.6916 38.1763 96.413 37.61 96.9793C36.8507 97.7386 35.8208 98.1651 34.747 98.1651C33.6732 98.1651 32.6433 97.7386 31.884 96.9793Z" fill="#4BAF51"/>
<path d="M42.117 96.9793C41.5507 96.413 41.1651 95.6916 41.0088 94.9061C40.8526 94.1207 40.9328 93.3066 41.2392 92.5667C41.5457 91.8268 42.0646 91.1945 42.7305 90.7495C43.3964 90.3046 44.1792 90.0671 44.98 90.0671C45.7809 90.0671 46.5637 90.3046 47.2296 90.7495C47.8954 91.1945 48.4144 91.8268 48.7208 92.5667C49.0273 93.3066 49.1075 94.1207 48.9512 94.9061C48.795 95.6916 48.4093 96.413 47.843 96.9793C47.0837 97.7386 46.0539 98.1651 44.98 98.1651C43.9062 98.1651 42.8764 97.7386 42.117 96.9793Z" fill="#4BAF51"/>
<path d="M52.35 96.9793C51.7837 96.413 51.3981 95.6916 51.2418 94.9061C51.0856 94.1207 51.1657 93.3066 51.4722 92.5667C51.7786 91.8268 52.2976 91.1945 52.9635 90.7495C53.6293 90.3046 54.4122 90.0671 55.213 90.0671C56.0138 90.0671 56.7967 90.3046 57.4625 90.7495C58.1284 91.1945 58.6474 91.8268 58.9538 92.5667C59.2603 93.3066 59.3404 94.1207 59.1842 94.9061C59.0279 95.6916 58.6423 96.413 58.076 96.9793C57.3167 97.7386 56.2868 98.1651 55.213 98.1651C54.1392 98.1651 53.1093 97.7386 52.35 96.9793Z" fill="#4BAF51"/>
<path d="M62.583 96.9793C62.0167 96.413 61.631 95.6916 61.4748 94.9061C61.3185 94.1207 61.3987 93.3066 61.7052 92.5667C62.0116 91.8268 62.5306 91.1945 63.1964 90.7495C63.8623 90.3046 64.6451 90.0671 65.446 90.0671C66.2468 90.0671 67.0296 90.3046 67.6955 90.7495C68.3614 91.1945 68.8803 91.8268 69.1868 92.5667C69.4932 93.3066 69.5734 94.1207 69.4172 94.9061C69.2609 95.6916 68.8753 96.413 68.309 96.9793C67.5496 97.7386 66.5198 98.1651 65.446 98.1651C64.3721 98.1651 63.3423 97.7386 62.583 96.9793Z" fill="#4BAF51"/>
<path d="M72.815 96.9793C72.2487 96.413 71.8631 95.6916 71.7068 94.9061C71.5506 94.1207 71.6308 93.3066 71.9372 92.5667C72.2437 91.8268 72.7626 91.1945 73.4285 90.7495C74.0944 90.3046 74.8772 90.0671 75.678 90.0671C76.4789 90.0671 77.2617 90.3046 77.9276 90.7495C78.5934 91.1945 79.1124 91.8268 79.4188 92.5667C79.7253 93.3066 79.8055 94.1207 79.6492 94.9061C79.493 95.6916 79.1073 96.413 78.541 96.9793C77.7817 97.7386 76.7519 98.1651 75.678 98.1651C74.6042 98.1651 73.5744 97.7386 72.815 96.9793Z" fill="#4BAF51"/>
<path d="M62.583 35.5852C62.0167 35.019 61.631 34.2975 61.4748 33.5121C61.3185 32.7267 61.3987 31.9125 61.7052 31.1727C62.0116 30.4328 62.5306 29.8004 63.1964 29.3555C63.8623 28.9106 64.6451 28.6731 65.446 28.6731C66.2468 28.6731 67.0296 28.9106 67.6955 29.3555C68.3614 29.8004 68.8803 30.4328 69.1868 31.1727C69.4932 31.9125 69.5734 32.7267 69.4172 33.5121C69.2609 34.2975 68.8753 35.019 68.309 35.5852C67.5496 36.3445 66.5198 36.7711 65.446 36.7711C64.3721 36.7711 63.3423 36.3445 62.583 35.5852Z" fill="#4BAF51"/>
<path d="M62.583 45.8172C62.0167 45.2509 61.631 44.5295 61.4748 43.744C61.3185 42.9586 61.3987 42.1445 61.7052 41.4046C62.0116 40.6647 62.5306 40.0323 63.1964 39.5874C63.8623 39.1425 64.6451 38.905 65.446 38.905C66.2468 38.905 67.0296 39.1425 67.6955 39.5874C68.3614 40.0323 68.8803 40.6647 69.1868 41.4046C69.4932 42.1445 69.5734 42.9586 69.4172 43.744C69.2609 44.5295 68.8753 45.2509 68.309 45.8172C67.5496 46.5765 66.5198 47.003 65.446 47.003C64.3721 47.003 63.3423 46.5765 62.583 45.8172Z" fill="#4BAF51"/>
<path d="M83.048 45.8172C82.4817 45.2509 82.0961 44.5295 81.9398 43.744C81.7836 42.9586 81.8637 42.1445 82.1702 41.4046C82.4766 40.6647 82.9956 40.0323 83.6615 39.5874C84.3273 39.1425 85.1102 38.905 85.911 38.905C86.7118 38.905 87.4947 39.1425 88.1605 39.5874C88.8264 40.0323 89.3454 40.6647 89.6518 41.4046C89.9583 42.1445 90.0384 42.9586 89.8822 43.744C89.7259 44.5295 89.3403 45.2509 88.774 45.8172C88.0147 46.5765 86.9848 47.003 85.911 47.003C84.8372 47.003 83.8073 46.5765 83.048 45.8172Z" fill="#4BAF51"/>
<path d="M83.048 56.0503C82.4817 55.4841 82.0961 54.7626 81.9398 53.9772C81.7836 53.1917 81.8637 52.3776 82.1702 51.6377C82.4766 50.8979 82.9956 50.2655 83.6615 49.8206C84.3273 49.3757 85.1102 49.1382 85.911 49.1382C86.7118 49.1382 87.4947 49.3757 88.1605 49.8206C88.8264 50.2655 89.3454 50.8979 89.6518 51.6377C89.9583 52.3776 90.0384 53.1917 89.8822 53.9772C89.7259 54.7626 89.3403 55.4841 88.774 56.0503C88.0147 56.8096 86.9848 57.2362 85.911 57.2362C84.8372 57.2362 83.8073 56.8096 83.048 56.0503Z" fill="#4BAF51"/>
<path d="M83.048 66.2823C82.4817 65.716 82.0961 64.9945 81.9398 64.2091C81.7836 63.4237 81.8637 62.6095 82.1702 61.8697C82.4766 61.1298 82.9956 60.4974 83.6615 60.0525C84.3273 59.6076 85.1102 59.3701 85.911 59.3701C86.7118 59.3701 87.4947 59.6076 88.1605 60.0525C88.8264 60.4974 89.3454 61.1298 89.6518 61.8697C89.9583 62.6095 90.0384 63.4237 89.8822 64.2091C89.7259 64.9945 89.3403 65.716 88.774 66.2823C88.0147 67.0416 86.9848 67.4681 85.911 67.4681C84.8372 67.4681 83.8073 67.0416 83.048 66.2823Z" fill="#4BAF51"/>
<path d="M83.048 76.5142C82.4817 75.9479 82.0961 75.2265 81.9398 74.441C81.7836 73.6556 81.8637 72.8415 82.1702 72.1016C82.4766 71.3617 82.9956 70.7294 83.6615 70.2844C84.3273 69.8395 85.1102 69.6021 85.911 69.6021C86.7118 69.6021 87.4947 69.8395 88.1605 70.2844C88.8264 70.7294 89.3454 71.3617 89.6518 72.1016C89.9583 72.8415 90.0384 73.6556 89.8822 74.441C89.7259 75.2265 89.3403 75.9479 88.774 76.5142C88.0147 77.2735 86.9848 77.7001 85.911 77.7001C84.8372 77.7001 83.8073 77.2735 83.048 76.5142Z" fill="#4BAF51"/>
<path d="M83.048 86.7474C82.4817 86.1811 82.0961 85.4596 81.9398 84.6742C81.7836 83.8888 81.8637 83.0746 82.1702 82.3348C82.4766 81.5949 82.9956 80.9625 83.6615 80.5176C84.3273 80.0727 85.1102 79.8352 85.911 79.8352C86.7118 79.8352 87.4947 80.0727 88.1605 80.5176C88.8264 80.9625 89.3454 81.5949 89.6518 82.3348C89.9583 83.0746 90.0384 83.8888 89.8822 84.6742C89.7259 85.4596 89.3403 86.1811 88.774 86.7474C88.0147 87.5066 86.9848 87.9332 85.911 87.9332C84.8372 87.9332 83.8073 87.5066 83.048 86.7474Z" fill="#4BAF51"/>
<path d="M83.048 96.9793C82.4817 96.413 82.0961 95.6916 81.9398 94.9061C81.7836 94.1207 81.8637 93.3066 82.1702 92.5667C82.4766 91.8268 82.9956 91.1945 83.6615 90.7495C84.3273 90.3046 85.1102 90.0671 85.911 90.0671C86.7118 90.0671 87.4947 90.3046 88.1605 90.7495C88.8264 91.1945 89.3454 91.8268 89.6518 92.5667C89.9583 93.3066 90.0384 94.1207 89.8822 94.9061C89.7259 95.6916 89.3403 96.413 88.774 96.9793C88.0147 97.7386 86.9848 98.1651 85.911 98.1651C84.8372 98.1651 83.8073 97.7386 83.048 96.9793Z" fill="#4BAF51"/>
<path d="M93.281 35.5852C92.7147 35.019 92.329 34.2975 92.1728 33.5121C92.0165 32.7267 92.0967 31.9125 92.4032 31.1727C92.7096 30.4328 93.2286 29.8004 93.8944 29.3555C94.5603 28.9106 95.3431 28.6731 96.144 28.6731C96.9448 28.6731 97.7276 28.9106 98.3935 29.3555C99.0594 29.8004 99.5783 30.4328 99.8848 31.1727C100.191 31.9125 100.271 32.7267 100.115 33.5121C99.9589 34.2975 99.5733 35.019 99.007 35.5852C98.2476 36.3445 97.2178 36.7711 96.144 36.7711C95.0701 36.7711 94.0403 36.3445 93.281 35.5852Z" fill="#4BAF51"/>
<path d="M93.281 45.8172C92.7147 45.2509 92.329 44.5295 92.1728 43.744C92.0165 42.9586 92.0967 42.1445 92.4032 41.4046C92.7096 40.6647 93.2286 40.0323 93.8944 39.5874C94.5603 39.1425 95.3431 38.905 96.144 38.905C96.9448 38.905 97.7276 39.1425 98.3935 39.5874C99.0594 40.0323 99.5783 40.6647 99.8848 41.4046C100.191 42.1445 100.271 42.9586 100.115 43.744C99.9589 44.5295 99.5733 45.2509 99.007 45.8172C98.2476 46.5765 97.2178 47.003 96.144 47.003C95.0701 47.003 94.0403 46.5765 93.281 45.8172Z" fill="#4BAF51"/>
<path d="M93.281 56.0503C92.7147 55.4841 92.329 54.7626 92.1728 53.9772C92.0165 53.1917 92.0967 52.3776 92.4032 51.6377C92.7096 50.8979 93.2286 50.2655 93.8944 49.8206C94.5603 49.3757 95.3431 49.1382 96.144 49.1382C96.9448 49.1382 97.7276 49.3757 98.3935 49.8206C99.0594 50.2655 99.5783 50.8979 99.8848 51.6377C100.191 52.3776 100.271 53.1917 100.115 53.9772C99.9589 54.7626 99.5733 55.4841 99.007 56.0503C98.2476 56.8096 97.2178 57.2362 96.144 57.2362C95.0701 57.2362 94.0403 56.8096 93.281 56.0503Z" fill="#4BAF51"/>
<path d="M93.281 66.2823C92.7147 65.716 92.329 64.9945 92.1728 64.2091C92.0165 63.4237 92.0967 62.6095 92.4032 61.8697C92.7096 61.1298 93.2286 60.4974 93.8944 60.0525C94.5603 59.6076 95.3431 59.3701 96.144 59.3701C96.9448 59.3701 97.7276 59.6076 98.3935 60.0525C99.0594 60.4974 99.5783 61.1298 99.8848 61.8697C100.191 62.6095 100.271 63.4237 100.115 64.2091C99.9589 64.9945 99.5733 65.716 99.007 66.2823C98.2476 67.0416 97.2178 67.4681 96.144 67.4681C95.0701 67.4681 94.0403 67.0416 93.281 66.2823Z" fill="#4BAF51"/>
<path d="M93.281 76.5142C92.7147 75.9479 92.329 75.2265 92.1728 74.441C92.0165 73.6556 92.0967 72.8415 92.4032 72.1016C92.7096 71.3617 93.2286 70.7294 93.8944 70.2844C94.5603 69.8395 95.3431 69.6021 96.144 69.6021C96.9448 69.6021 97.7276 69.8395 98.3935 70.2844C99.0594 70.7294 99.5783 71.3617 99.8848 72.1016C100.191 72.8415 100.271 73.6556 100.115 74.441C99.9589 75.2265 99.5733 75.9479 99.007 76.5142C98.2476 77.2735 97.2178 77.7001 96.144 77.7001C95.0701 77.7001 94.0403 77.2735 93.281 76.5142Z" fill="#4BAF51"/>
<path d="M93.281 86.7474C92.7147 86.1811 92.329 85.4596 92.1728 84.6742C92.0165 83.8888 92.0967 83.0746 92.4032 82.3348C92.7096 81.5949 93.2286 80.9625 93.8944 80.5176C94.5603 80.0727 95.3431 79.8352 96.144 79.8352C96.9448 79.8352 97.7276 80.0727 98.3935 80.5176C99.0594 80.9625 99.5783 81.5949 99.8848 82.3348C100.191 83.0746 100.271 83.8888 100.115 84.6742C99.9589 85.4596 99.5733 86.1811 99.007 86.7474C98.2476 87.5066 97.2178 87.9332 96.144 87.9332C95.0701 87.9332 94.0403 87.5066 93.281 86.7474Z" fill="#4BAF51"/>
<path d="M93.281 96.9793C92.7147 96.413 92.329 95.6916 92.1728 94.9061C92.0165 94.1207 92.0967 93.3066 92.4032 92.5667C92.7096 91.8268 93.2286 91.1945 93.8944 90.7495C94.5603 90.3046 95.3431 90.0671 96.144 90.0671C96.9448 90.0671 97.7276 90.3046 98.3935 90.7495C99.0594 91.1945 99.5783 91.8268 99.8848 92.5667C100.191 93.3066 100.271 94.1207 100.115 94.9061C99.9589 95.6916 99.5733 96.413 99.007 96.9793C98.2476 97.7386 97.2178 98.1651 96.144 98.1651C95.0701 98.1651 94.0403 97.7386 93.281 96.9793Z" fill="#4BAF51"/>
<path d="M2.619 34.1543C2.33583 33.8711 2.143 33.5103 2.06489 33.1175C1.98678 32.7246 2.0269 32.3175 2.18018 31.9475C2.33345 31.5775 2.593 31.2613 2.926 31.0388C3.25901 30.8163 3.65051 30.6975 4.051 30.6975C4.4515 30.6975 4.843 30.8163 5.176 31.0388C5.509 31.2613 5.76855 31.5775 5.92183 31.9475C6.07511 32.3175 6.11522 32.7246 6.03711 33.1175C5.959 33.5103 5.76617 33.8711 5.483 34.1543C5.29496 34.3424 5.07171 34.4916 4.82601 34.5933C4.5803 34.6951 4.31695 34.7475 4.051 34.7475C3.78505 34.7475 3.5217 34.6951 3.276 34.5933C3.03029 34.4916 2.80704 34.3424 2.619 34.1543Z" fill="#4BAF51"/>
<path d="M23.082 34.1543C22.7988 33.8711 22.606 33.5103 22.5279 33.1175C22.4498 32.7246 22.4899 32.3175 22.6432 31.9475C22.7965 31.5775 23.056 31.2613 23.389 31.0388C23.722 30.8163 24.1135 30.6975 24.514 30.6975C24.9145 30.6975 25.306 30.8163 25.639 31.0388C25.972 31.2613 26.2316 31.5775 26.3848 31.9475C26.5381 32.3175 26.5782 32.7246 26.5001 33.1175C26.422 33.5103 26.2292 33.8711 25.946 34.1543C25.758 34.3424 25.5347 34.4916 25.289 34.5933C25.0433 34.6951 24.78 34.7475 24.514 34.7475C24.2481 34.7475 23.9847 34.6951 23.739 34.5933C23.4933 34.4916 23.2701 34.3424 23.082 34.1543Z" fill="#4BAF51"/>
<path d="M12.85 34.1543C12.5668 33.8711 12.374 33.5103 12.2959 33.1175C12.2178 32.7246 12.2579 32.3175 12.4112 31.9475C12.5645 31.5775 12.824 31.2613 13.157 31.0388C13.49 30.8163 13.8815 30.6975 14.282 30.6975C14.6825 30.6975 15.074 30.8163 15.407 31.0388C15.74 31.2613 15.9996 31.5775 16.1528 31.9475C16.3061 32.3175 16.3462 32.7246 16.2681 33.1175C16.19 33.5103 15.9972 33.8711 15.714 34.1543C15.526 34.3424 15.3027 34.4916 15.057 34.5933C14.8113 34.6951 14.548 34.7475 14.282 34.7475C14.0161 34.7475 13.7527 34.6951 13.507 34.5933C13.2613 34.4916 13.0381 34.3424 12.85 34.1543Z" fill="#4BAF51"/>
<path d="M2.619 44.3862C2.33583 44.103 2.143 43.7422 2.06489 43.3494C1.98678 42.9566 2.0269 42.5494 2.18018 42.1794C2.33345 41.8094 2.593 41.4932 2.926 41.2707C3.25901 41.0482 3.65051 40.9294 4.051 40.9294C4.4515 40.9294 4.843 41.0482 5.176 41.2707C5.509 41.4932 5.76855 41.8094 5.92183 42.1794C6.07511 42.5494 6.11522 42.9566 6.03711 43.3494C5.959 43.7422 5.76617 44.103 5.483 44.3862C5.29496 44.5743 5.07171 44.7235 4.82601 44.8253C4.5803 44.9271 4.31695 44.9794 4.051 44.9794C3.78505 44.9794 3.5217 44.9271 3.276 44.8253C3.03029 44.7235 2.80704 44.5743 2.619 44.3862Z" fill="#4BAF51"/>
<path d="M2.619 54.6184C2.33583 54.3352 2.143 53.9744 2.06489 53.5816C1.98678 53.1888 2.0269 52.7816 2.18018 52.4116C2.33345 52.0416 2.593 51.7254 2.926 51.5029C3.25901 51.2804 3.65051 51.1616 4.051 51.1616C4.4515 51.1616 4.843 51.2804 5.176 51.5029C5.509 51.7254 5.76855 52.0416 5.92183 52.4116C6.07511 52.7816 6.11522 53.1888 6.03711 53.5816C5.959 53.9744 5.76617 54.3352 5.483 54.6184C5.29503 54.8066 5.0718 54.9559 4.82609 55.0577C4.58037 55.1596 4.31699 55.212 4.051 55.212C3.78501 55.212 3.52163 55.1596 3.27592 55.0577C3.0302 54.9559 2.80698 54.8066 2.619 54.6184Z" fill="#4BAF51"/>
<path d="M12.85 44.3862C12.5668 44.103 12.374 43.7422 12.2959 43.3494C12.2178 42.9566 12.2579 42.5494 12.4112 42.1794C12.5645 41.8094 12.824 41.4932 13.157 41.2707C13.49 41.0482 13.8815 40.9294 14.282 40.9294C14.6825 40.9294 15.074 41.0482 15.407 41.2707C15.74 41.4932 15.9996 41.8094 16.1528 42.1794C16.3061 42.5494 16.3462 42.9566 16.2681 43.3494C16.19 43.7422 15.9972 44.103 15.714 44.3862C15.526 44.5743 15.3027 44.7235 15.057 44.8253C14.8113 44.9271 14.548 44.9794 14.282 44.9794C14.0161 44.9794 13.7527 44.9271 13.507 44.8253C13.2613 44.7235 13.0381 44.5743 12.85 44.3862Z" fill="#4BAF51"/>
<path d="M2.619 23.9224C2.33583 23.6391 2.143 23.2783 2.06489 22.8855C1.98678 22.4927 2.0269 22.0856 2.18018 21.7156C2.33345 21.3456 2.593 21.0293 2.926 20.8068C3.25901 20.5843 3.65051 20.4656 4.051 20.4656C4.4515 20.4656 4.843 20.5843 5.176 20.8068C5.509 21.0293 5.76855 21.3456 5.92183 21.7156C6.07511 22.0856 6.11522 22.4927 6.03711 22.8855C5.959 23.2783 5.76617 23.6391 5.483 23.9224C5.29496 24.1104 5.07171 24.2596 4.82601 24.3614C4.5803 24.4632 4.31695 24.5156 4.051 24.5156C3.78505 24.5156 3.5217 24.4632 3.276 24.3614C3.03029 24.2596 2.80704 24.1104 2.619 23.9224Z" fill="#4BAF51"/>
<path d="M23.083 23.9224C22.7998 23.6391 22.607 23.2783 22.5289 22.8855C22.4508 22.4927 22.4909 22.0856 22.6442 21.7156C22.7974 21.3456 23.057 21.0293 23.39 20.8068C23.723 20.5843 24.1145 20.4656 24.515 20.4656C24.9155 20.4656 25.307 20.5843 25.64 20.8068C25.973 21.0293 26.2325 21.3456 26.3858 21.7156C26.5391 22.0856 26.5792 22.4927 26.5011 22.8855C26.423 23.2783 26.2302 23.6391 25.947 23.9224C25.7589 24.1104 25.5357 24.2596 25.29 24.3614C25.0443 24.4632 24.7809 24.5156 24.515 24.5156C24.249 24.5156 23.9857 24.4632 23.74 24.3614C23.4943 24.2596 23.271 24.1104 23.083 23.9224Z" fill="#4BAF51"/>
<path d="M12.85 23.9224C12.5668 23.6391 12.374 23.2783 12.2959 22.8855C12.2178 22.4927 12.2579 22.0856 12.4112 21.7156C12.5645 21.3456 12.824 21.0293 13.157 20.8068C13.49 20.5843 13.8815 20.4656 14.282 20.4656C14.6825 20.4656 15.074 20.5843 15.407 20.8068C15.74 21.0293 15.9996 21.3456 16.1528 21.7156C16.3061 22.0856 16.3462 22.4927 16.2681 22.8855C16.19 23.2783 15.9972 23.6391 15.714 23.9224C15.526 24.1104 15.3027 24.2596 15.057 24.3614C14.8113 24.4632 14.548 24.5156 14.282 24.5156C14.0161 24.5156 13.7527 24.4632 13.507 24.3614C13.2613 24.2596 13.0381 24.1104 12.85 23.9224Z" fill="#4BAF51"/>
<path d="M2.619 13.6892C2.33583 13.406 2.143 13.0452 2.06489 12.6524C1.98678 12.2596 2.0269 11.8524 2.18018 11.4824C2.33345 11.1124 2.593 10.7962 2.926 10.5737C3.25901 10.3512 3.65051 10.2324 4.051 10.2324C4.4515 10.2324 4.843 10.3512 5.176 10.5737C5.509 10.7962 5.76855 11.1124 5.92183 11.4824C6.07511 11.8524 6.11522 12.2596 6.03711 12.6524C5.959 13.0452 5.76617 13.406 5.483 13.6892C5.29496 13.8773 5.07171 14.0265 4.82601 14.1282C4.5803 14.23 4.31695 14.2824 4.051 14.2824C3.78505 14.2824 3.5217 14.23 3.276 14.1282C3.03029 14.0265 2.80704 13.8773 2.619 13.6892Z" fill="#4BAF51"/>
<path d="M23.082 13.6892C22.7988 13.406 22.606 13.0452 22.5279 12.6524C22.4498 12.2596 22.4899 11.8524 22.6432 11.4824C22.7965 11.1124 23.056 10.7962 23.389 10.5737C23.722 10.3512 24.1135 10.2324 24.514 10.2324C24.9145 10.2324 25.306 10.3512 25.639 10.5737C25.972 10.7962 26.2316 11.1124 26.3848 11.4824C26.5381 11.8524 26.5782 12.2596 26.5001 12.6524C26.422 13.0452 26.2292 13.406 25.946 13.6892C25.758 13.8773 25.5347 14.0265 25.289 14.1282C25.0433 14.23 24.78 14.2824 24.514 14.2824C24.2481 14.2824 23.9847 14.23 23.739 14.1282C23.4933 14.0265 23.2701 13.8773 23.082 13.6892Z" fill="#4BAF51"/>
<path d="M12.85 13.6892C12.5668 13.406 12.374 13.0452 12.2959 12.6524C12.2178 12.2596 12.2579 11.8524 12.4112 11.4824C12.5645 11.1124 12.824 10.7962 13.157 10.5737C13.49 10.3512 13.8815 10.2324 14.282 10.2324C14.6825 10.2324 15.074 10.3512 15.407 10.5737C15.74 10.7962 15.9996 11.1124 16.1528 11.4824C16.3061 11.8524 16.3462 12.2596 16.2681 12.6524C16.19 13.0452 15.9972 13.406 15.714 13.6892C15.526 13.8773 15.3027 14.0265 15.057 14.1282C14.8113 14.23 14.548 14.2824 14.282 14.2824C14.0161 14.2824 13.7527 14.23 13.507 14.1282C13.2613 14.0265 13.0381 13.8773 12.85 13.6892Z" fill="#4BAF51"/>
<path d="M2.619 3.45727C2.33583 3.17406 2.143 2.81324 2.06489 2.42043C1.98678 2.02763 2.0269 1.62049 2.18018 1.25048C2.33345 0.880481 2.593 0.564237 2.926 0.341741C3.25901 0.119245 3.65051 0.000488281 4.051 0.000488281C4.4515 0.000488281 4.843 0.119245 5.176 0.341741C5.509 0.564237 5.76855 0.880481 5.92183 1.25048C6.07511 1.62049 6.11522 2.02763 6.03711 2.42043C5.959 2.81324 5.76617 3.17406 5.483 3.45727C5.29496 3.64534 5.07171 3.79453 4.82601 3.89632C4.5803 3.9981 4.31695 4.05049 4.051 4.05049C3.78505 4.05049 3.5217 3.9981 3.276 3.89632C3.03029 3.79453 2.80704 3.64534 2.619 3.45727Z" fill="#4BAF51"/>
<path d="M23.082 3.45727C22.7988 3.17406 22.606 2.81324 22.5279 2.42043C22.4498 2.02763 22.4899 1.62049 22.6432 1.25048C22.7965 0.880481 23.056 0.564237 23.389 0.341741C23.722 0.119245 24.1135 0.000488281 24.514 0.000488281C24.9145 0.000488281 25.306 0.119245 25.639 0.341741C25.972 0.564237 26.2316 0.880481 26.3848 1.25048C26.5381 1.62049 26.5782 2.02763 26.5001 2.42043C26.422 2.81324 26.2292 3.17406 25.946 3.45727C25.758 3.64534 25.5347 3.79453 25.289 3.89632C25.0433 3.9981 24.78 4.05049 24.514 4.05049C24.2481 4.05049 23.9847 3.9981 23.739 3.89632C23.4933 3.79453 23.2701 3.64534 23.082 3.45727Z" fill="#4BAF51"/>
<path d="M12.85 3.45727C12.5668 3.17406 12.374 2.81324 12.2959 2.42043C12.2178 2.02763 12.2579 1.62049 12.4112 1.25048C12.5645 0.880481 12.824 0.564237 13.157 0.341741C13.49 0.119245 13.8815 0.000488281 14.282 0.000488281C14.6825 0.000488281 15.074 0.119245 15.407 0.341741C15.74 0.564237 15.9996 0.880481 16.1528 1.25048C16.3061 1.62049 16.3462 2.02763 16.2681 2.42043C16.19 2.81324 15.9972 3.17406 15.714 3.45727C15.526 3.64534 15.3027 3.79453 15.057 3.89632C14.8113 3.9981 14.548 4.05049 14.282 4.05049C14.0161 4.05049 13.7527 3.9981 13.507 3.89632C13.2613 3.79453 13.0381 3.64534 12.85 3.45727Z" fill="#4BAF51"/>
<path d="M33.316 3.45727C33.0329 3.17406 32.84 2.81324 32.7619 2.42043C32.6838 2.02763 32.7239 1.62049 32.8772 1.25048C33.0305 0.880481 33.29 0.564237 33.623 0.341741C33.956 0.119245 34.3475 0.000488281 34.748 0.000488281C35.1485 0.000488281 35.54 0.119245 35.873 0.341741C36.206 0.564237 36.4656 0.880481 36.6189 1.25048C36.7721 1.62049 36.8122 2.02763 36.7341 2.42043C36.656 2.81324 36.4632 3.17406 36.18 3.45727C35.992 3.64534 35.7687 3.79453 35.523 3.89632C35.2773 3.9981 35.014 4.05049 34.748 4.05049C34.4821 4.05049 34.2187 3.9981 33.973 3.89632C33.7273 3.79453 33.5041 3.64534 33.316 3.45727Z" fill="#4BAF51"/>
<path d="M53.778 3.45727C53.4948 3.17406 53.302 2.81324 53.2239 2.42043C53.1458 2.02763 53.1859 1.62049 53.3392 1.25048C53.4924 0.880481 53.752 0.564237 54.085 0.341741C54.418 0.119245 54.8095 0.000488281 55.21 0.000488281C55.6105 0.000488281 56.002 0.119245 56.335 0.341741C56.668 0.564237 56.9275 0.880481 57.0808 1.25048C57.2341 1.62049 57.2742 2.02763 57.1961 2.42043C57.118 2.81324 56.9252 3.17406 56.642 3.45727C56.454 3.64534 56.2307 3.79453 55.985 3.89632C55.7393 3.9981 55.4759 4.05049 55.21 4.05049C54.944 4.05049 54.6807 3.9981 54.435 3.89632C54.1893 3.79453 53.966 3.64534 53.778 3.45727Z" fill="#4BAF51"/>
<path d="M43.547 3.45728C43.2637 3.17413 43.0707 2.81331 42.9925 2.42046C42.9143 2.02762 42.9543 1.62041 43.1075 1.25032C43.2608 0.880237 43.5203 0.56391 43.8533 0.341351C44.1864 0.118792 44.5779 0 44.9785 0C45.379 0 45.7706 0.118792 46.1036 0.341351C46.4367 0.56391 46.6962 0.880237 46.8495 1.25032C47.0027 1.62041 47.0427 2.02762 46.9645 2.42046C46.8863 2.81331 46.6933 3.17413 46.41 3.45728C46.0303 3.8368 45.5154 4.05 44.9785 4.05C44.4416 4.05 43.9267 3.8368 43.547 3.45728Z" fill="#4BAF51"/>
<path d="M64.013 3.45727C63.7298 3.17406 63.537 2.81324 63.4589 2.42043C63.3808 2.02763 63.4209 1.62049 63.5742 1.25048C63.7274 0.880481 63.987 0.564237 64.32 0.341741C64.653 0.119245 65.0445 0.000488281 65.445 0.000488281C65.8455 0.000488281 66.237 0.119245 66.57 0.341741C66.903 0.564237 67.1625 0.880481 67.3158 1.25048C67.4691 1.62049 67.5092 2.02763 67.4311 2.42043C67.353 2.81324 67.1602 3.17406 66.877 3.45727C66.6889 3.64534 66.4657 3.79453 66.22 3.89632C65.9743 3.9981 65.7109 4.05049 65.445 4.05049C65.179 4.05049 64.9157 3.9981 64.67 3.89632C64.4243 3.79453 64.201 3.64534 64.013 3.45727Z" fill="#4BAF51"/>
<path d="M84.475 3.45727C84.1918 3.17406 83.999 2.81324 83.9209 2.42043C83.8428 2.02763 83.8829 1.62049 84.0362 1.25048C84.1895 0.880481 84.449 0.564237 84.782 0.341741C85.115 0.119245 85.5065 0.000488281 85.907 0.000488281C86.3075 0.000488281 86.699 0.119245 87.032 0.341741C87.365 0.564237 87.6246 0.880481 87.7778 1.25048C87.9311 1.62049 87.9712 2.02763 87.8931 2.42043C87.815 2.81324 87.6222 3.17406 87.339 3.45727C87.151 3.64534 86.9277 3.79453 86.682 3.89632C86.4363 3.9981 86.173 4.05049 85.907 4.05049C85.6411 4.05049 85.3777 3.9981 85.132 3.89632C84.8863 3.79453 84.6631 3.64534 84.475 3.45727Z" fill="#4BAF51"/>
<path d="M74.243 3.45727C73.9598 3.17406 73.767 2.81324 73.6889 2.42043C73.6108 2.02763 73.6509 1.62049 73.8042 1.25048C73.9575 0.880481 74.217 0.564237 74.55 0.341741C74.883 0.119245 75.2745 0.000488281 75.675 0.000488281C76.0755 0.000488281 76.467 0.119245 76.8 0.341741C77.133 0.564237 77.3926 0.880481 77.5459 1.25048C77.6991 1.62049 77.7392 2.02763 77.6611 2.42043C77.583 2.81324 77.3902 3.17406 77.107 3.45727C76.919 3.64534 76.6957 3.79453 76.45 3.89632C76.2043 3.9981 75.941 4.05049 75.675 4.05049C75.4091 4.05049 75.1457 3.9981 74.9 3.89632C74.6543 3.79453 74.4311 3.64534 74.243 3.45727Z" fill="#4BAF51"/>
<path d="M33.316 13.8003C33.0329 13.5171 32.84 13.1563 32.7619 12.7635C32.6838 12.3706 32.7239 11.9635 32.8772 11.5935C33.0305 11.2235 33.29 10.9073 33.623 10.6848C33.956 10.4623 34.3475 10.3435 34.748 10.3435C35.1485 10.3435 35.54 10.4623 35.873 10.6848C36.206 10.9073 36.4656 11.2235 36.6189 11.5935C36.7721 11.9635 36.8122 12.3706 36.7341 12.7635C36.656 13.1563 36.4632 13.5171 36.18 13.8003C35.992 13.9884 35.7687 14.1375 35.523 14.2393C35.2773 14.3411 35.014 14.3935 34.748 14.3935C34.4821 14.3935 34.2187 14.3411 33.973 14.2393C33.7273 14.1375 33.5041 13.9884 33.316 13.8003Z" fill="#4BAF51"/>
<path d="M53.778 13.8003C53.4948 13.5171 53.302 13.1563 53.2239 12.7635C53.1458 12.3706 53.1859 11.9635 53.3392 11.5935C53.4924 11.2235 53.752 10.9073 54.085 10.6848C54.418 10.4623 54.8095 10.3435 55.21 10.3435C55.6105 10.3435 56.002 10.4623 56.335 10.6848C56.668 10.9073 56.9275 11.2235 57.0808 11.5935C57.2341 11.9635 57.2742 12.3706 57.1961 12.7635C57.118 13.1563 56.9252 13.5171 56.642 13.8003C56.454 13.9884 56.2307 14.1375 55.985 14.2393C55.7393 14.3411 55.4759 14.3935 55.21 14.3935C54.944 14.3935 54.6807 14.3411 54.435 14.2393C54.1893 14.1375 53.966 13.9884 53.778 13.8003Z" fill="#4BAF51"/>
<path d="M43.547 13.8003C43.2637 13.5171 43.0707 13.1563 42.9925 12.7635C42.9143 12.3706 42.9543 11.9634 43.1075 11.5933C43.2608 11.2233 43.5203 10.9069 43.8533 10.6844C44.1864 10.4618 44.5779 10.343 44.9785 10.343C45.379 10.343 45.7706 10.4618 46.1036 10.6844C46.4367 10.9069 46.6962 11.2233 46.8495 11.5933C47.0027 11.9634 47.0427 12.3706 46.9645 12.7635C46.8863 13.1563 46.6933 13.5171 46.41 13.8003C46.0303 14.1798 45.5154 14.393 44.9785 14.393C44.4416 14.393 43.9267 14.1798 43.547 13.8003Z" fill="#4BAF51"/>
<path d="M64.013 13.8003C63.7298 13.5171 63.537 13.1563 63.4589 12.7635C63.3808 12.3706 63.4209 11.9635 63.5742 11.5935C63.7274 11.2235 63.987 10.9073 64.32 10.6848C64.653 10.4623 65.0445 10.3435 65.445 10.3435C65.8455 10.3435 66.237 10.4623 66.57 10.6848C66.903 10.9073 67.1625 11.2235 67.3158 11.5935C67.4691 11.9635 67.5092 12.3706 67.4311 12.7635C67.353 13.1563 67.1602 13.5171 66.877 13.8003C66.6889 13.9884 66.4657 14.1375 66.22 14.2393C65.9743 14.3411 65.7109 14.3935 65.445 14.3935C65.179 14.3935 64.9157 14.3411 64.67 14.2393C64.4243 14.1375 64.201 13.9884 64.013 13.8003Z" fill="#4BAF51"/>
<path d="M84.475 13.8003C84.1918 13.5171 83.999 13.1563 83.9209 12.7635C83.8428 12.3706 83.8829 11.9635 84.0362 11.5935C84.1895 11.2235 84.449 10.9073 84.782 10.6848C85.115 10.4623 85.5065 10.3435 85.907 10.3435C86.3075 10.3435 86.699 10.4623 87.032 10.6848C87.365 10.9073 87.6246 11.2235 87.7778 11.5935C87.9311 11.9635 87.9712 12.3706 87.8931 12.7635C87.815 13.1563 87.6222 13.5171 87.339 13.8003C87.151 13.9884 86.9277 14.1375 86.682 14.2393C86.4363 14.3411 86.173 14.3935 85.907 14.3935C85.6411 14.3935 85.3777 14.3411 85.132 14.2393C84.8863 14.1375 84.6631 13.9884 84.475 13.8003Z" fill="#4BAF51"/>
<path d="M74.243 13.8003C73.9598 13.5171 73.767 13.1563 73.6889 12.7635C73.6108 12.3706 73.6509 11.9635 73.8042 11.5935C73.9575 11.2235 74.217 10.9073 74.55 10.6848C74.883 10.4623 75.2745 10.3435 75.675 10.3435C76.0755 10.3435 76.467 10.4623 76.8 10.6848C77.133 10.9073 77.3926 11.2235 77.5459 11.5935C77.6991 11.9635 77.7392 12.3706 77.6611 12.7635C77.583 13.1563 77.3902 13.5171 77.107 13.8003C76.919 13.9884 76.6957 14.1375 76.45 14.2393C76.2043 14.3411 75.941 14.3935 75.675 14.3935C75.4091 14.3935 75.1457 14.3411 74.9 14.2393C74.6543 14.1375 74.4311 13.9884 74.243 13.8003Z" fill="#4BAF51"/>
<path d="M33.318 23.9224C33.0348 23.6391 32.842 23.2783 32.7639 22.8855C32.6858 22.4927 32.7259 22.0856 32.8792 21.7156C33.0324 21.3456 33.292 21.0293 33.625 20.8068C33.958 20.5843 34.3495 20.4656 34.75 20.4656C35.1505 20.4656 35.542 20.5843 35.875 20.8068C36.208 21.0293 36.4675 21.3456 36.6208 21.7156C36.7741 22.0856 36.8142 22.4927 36.7361 22.8855C36.658 23.2783 36.4651 23.6391 36.182 23.9224C35.9939 24.1104 35.7707 24.2596 35.525 24.3614C35.2793 24.4632 35.0159 24.5156 34.75 24.5156C34.484 24.5156 34.2207 24.4632 33.975 24.3614C33.7293 24.2596 33.506 24.1104 33.318 23.9224Z" fill="#4BAF51"/>
<path d="M53.78 23.9224C53.4968 23.6391 53.304 23.2783 53.2259 22.8855C53.1478 22.4927 53.1879 22.0856 53.3412 21.7156C53.4945 21.3456 53.754 21.0293 54.087 20.8068C54.42 20.5843 54.8115 20.4656 55.212 20.4656C55.6125 20.4656 56.004 20.5843 56.337 20.8068C56.67 21.0293 56.9296 21.3456 57.0828 21.7156C57.2361 22.0856 57.2762 22.4927 57.1981 22.8855C57.12 23.2783 56.9272 23.6391 56.644 23.9224C56.456 24.1104 56.2327 24.2596 55.987 24.3614C55.7413 24.4632 55.478 24.5156 55.212 24.5156C54.9461 24.5156 54.6827 24.4632 54.437 24.3614C54.1913 24.2596 53.9681 24.1104 53.78 23.9224Z" fill="#4BAF51"/>
<path d="M43.549 23.9224C43.2657 23.6392 43.0727 23.2784 42.9945 22.8856C42.9163 22.4927 42.9563 22.0855 43.1095 21.7154C43.2628 21.3453 43.5223 21.029 43.8554 20.8064C44.1884 20.5839 44.58 20.4651 44.9805 20.4651C45.3811 20.4651 45.7726 20.5839 46.1056 20.8064C46.4387 21.029 46.6982 21.3453 46.8515 21.7154C47.0047 22.0855 47.0447 22.4927 46.9665 22.8856C46.8883 23.2784 46.6953 23.6392 46.412 23.9224C46.2241 24.1105 46.001 24.2598 45.7553 24.3616C45.5097 24.4635 45.2464 24.5159 44.9805 24.5159C44.7146 24.5159 44.4513 24.4635 44.2057 24.3616C43.96 24.2598 43.7369 24.1105 43.549 23.9224Z" fill="#4BAF51"/>
<path d="M64.015 23.9224C63.7318 23.6391 63.539 23.2783 63.4609 22.8855C63.3828 22.4927 63.4229 22.0856 63.5762 21.7156C63.7294 21.3456 63.989 21.0293 64.322 20.8068C64.655 20.5843 65.0465 20.4656 65.447 20.4656C65.8475 20.4656 66.239 20.5843 66.572 20.8068C66.905 21.0293 67.1645 21.3456 67.3178 21.7156C67.4711 22.0856 67.5112 22.4927 67.4331 22.8855C67.355 23.2783 67.1622 23.6391 66.879 23.9224C66.691 24.1104 66.4677 24.2596 66.222 24.3614C65.9763 24.4632 65.7129 24.5156 65.447 24.5156C65.181 24.5156 64.9177 24.4632 64.672 24.3614C64.4263 24.2596 64.203 24.1104 64.015 23.9224Z" fill="#4BAF51"/>
<path d="M84.477 23.9224C84.1939 23.6391 84.001 23.2783 83.9229 22.8855C83.8448 22.4927 83.8849 22.0856 84.0382 21.7156C84.1915 21.3456 84.451 21.0293 84.784 20.8068C85.117 20.5843 85.5085 20.4656 85.909 20.4656C86.3095 20.4656 86.701 20.5843 87.034 20.8068C87.367 21.0293 87.6266 21.3456 87.7799 21.7156C87.9331 22.0856 87.9733 22.4927 87.8951 22.8855C87.817 23.2783 87.6242 23.6391 87.341 23.9224C87.153 24.1104 86.9297 24.2596 86.684 24.3614C86.4383 24.4632 86.175 24.5156 85.909 24.5156C85.6431 24.5156 85.3797 24.4632 85.134 24.3614C84.8883 24.2596 84.6651 24.1104 84.477 23.9224Z" fill="#4BAF51"/>
<path d="M94.71 3.45727C94.4268 3.17406 94.234 2.81324 94.1559 2.42043C94.0778 2.02763 94.1179 1.62049 94.2712 1.25048C94.4245 0.880481 94.684 0.564237 95.017 0.341741C95.35 0.119245 95.7415 0.000488281 96.142 0.000488281C96.5425 0.000488281 96.934 0.119245 97.267 0.341741C97.6 0.564237 97.8596 0.880481 98.0128 1.25048C98.1661 1.62049 98.2062 2.02763 98.1281 2.42043C98.05 2.81324 97.8572 3.17406 97.574 3.45727C97.386 3.64534 97.1627 3.79453 96.917 3.89632C96.6713 3.9981 96.408 4.05049 96.142 4.05049C95.8761 4.05049 95.6127 3.9981 95.367 3.89632C95.1213 3.79453 94.8981 3.64534 94.71 3.45727Z" fill="#4BAF51"/>
<path d="M94.71 13.8003C94.4268 13.5171 94.234 13.1563 94.1559 12.7635C94.0778 12.3706 94.1179 11.9635 94.2712 11.5935C94.4245 11.2235 94.684 10.9073 95.017 10.6848C95.35 10.4623 95.7415 10.3435 96.142 10.3435C96.5425 10.3435 96.934 10.4623 97.267 10.6848C97.6 10.9073 97.8596 11.2235 98.0128 11.5935C98.1661 11.9635 98.2062 12.3706 98.1281 12.7635C98.05 13.1563 97.8572 13.5171 97.574 13.8003C97.386 13.9884 97.1627 14.1375 96.917 14.2393C96.6713 14.3411 96.408 14.3935 96.142 14.3935C95.8761 14.3935 95.6127 14.3411 95.367 14.2393C95.1213 14.1375 94.8981 13.9884 94.71 13.8003Z" fill="#4BAF51"/>
<path d="M94.712 23.9224C94.4288 23.6391 94.236 23.2783 94.1579 22.8855C94.0798 22.4927 94.1199 22.0856 94.2732 21.7156C94.4265 21.3456 94.686 21.0293 95.019 20.8068C95.352 20.5843 95.7435 20.4656 96.144 20.4656C96.5445 20.4656 96.936 20.5843 97.269 20.8068C97.602 21.0293 97.8616 21.3456 98.0148 21.7156C98.1681 22.0856 98.2082 22.4927 98.1301 22.8855C98.052 23.2783 97.8592 23.6391 97.576 23.9224C97.388 24.1104 97.1647 24.2596 96.919 24.3614C96.6733 24.4632 96.41 24.5156 96.144 24.5156C95.8781 24.5156 95.6147 24.4632 95.369 24.3614C95.1233 24.2596 94.9001 24.1104 94.712 23.9224Z" fill="#4BAF51"/>
<path d="M74.245 23.9224C73.9618 23.6391 73.769 23.2783 73.6909 22.8855C73.6128 22.4927 73.6529 22.0856 73.8062 21.7156C73.9594 21.3456 74.219 21.0293 74.552 20.8068C74.885 20.5843 75.2765 20.4656 75.677 20.4656C76.0775 20.4656 76.469 20.5843 76.802 20.8068C77.135 21.0293 77.3945 21.3456 77.5478 21.7156C77.7011 22.0856 77.7412 22.4927 77.6631 22.8855C77.585 23.2783 77.3921 23.6391 77.109 23.9224C76.9209 24.1104 76.6977 24.2596 76.452 24.3614C76.2063 24.4632 75.9429 24.5156 75.677 24.5156C75.411 24.5156 75.1477 24.4632 74.902 24.3614C74.6563 24.2596 74.433 24.1104 74.245 23.9224Z" fill="#4BAF51"/>
<path d="M53.78 34.1543C53.4968 33.8711 53.304 33.5103 53.2259 33.1175C53.1478 32.7246 53.1879 32.3175 53.3412 31.9475C53.4945 31.5775 53.754 31.2613 54.087 31.0388C54.42 30.8163 54.8115 30.6975 55.212 30.6975C55.6125 30.6975 56.004 30.8163 56.337 31.0388C56.67 31.2613 56.9296 31.5775 57.0828 31.9475C57.2361 32.3175 57.2762 32.7246 57.1981 33.1175C57.12 33.5103 56.9272 33.8711 56.644 34.1543C56.456 34.3424 56.2327 34.4916 55.987 34.5933C55.7413 34.6951 55.478 34.7475 55.212 34.7475C54.9461 34.7475 54.6827 34.6951 54.437 34.5933C54.1913 34.4916 53.9681 34.3424 53.78 34.1543Z" fill="#4BAF51"/>
<path d="M43.549 34.1543C43.2657 33.8711 43.0727 33.5103 42.9945 33.1175C42.9163 32.7246 42.9563 32.3174 43.1095 31.9473C43.2628 31.5773 43.5223 31.2609 43.8554 31.0384C44.1884 30.8158 44.58 30.697 44.9805 30.697C45.3811 30.697 45.7726 30.8158 46.1056 31.0384C46.4387 31.2609 46.6982 31.5773 46.8515 31.9473C47.0047 32.3174 47.0447 32.7246 46.9665 33.1175C46.8883 33.5103 46.6953 33.8711 46.412 34.1543C46.2241 34.3425 46.001 34.4917 45.7553 34.5936C45.5097 34.6954 45.2464 34.7479 44.9805 34.7479C44.7146 34.7479 44.4513 34.6954 44.2057 34.5936C43.96 34.4917 43.7369 34.3425 43.549 34.1543Z" fill="#4BAF51"/>
<path d="M43.549 44.3862C43.2657 44.1031 43.0727 43.7423 42.9945 43.3494C42.9163 42.9566 42.9563 42.5494 43.1095 42.1793C43.2628 41.8092 43.5223 41.4929 43.8554 41.2703C44.1884 41.0477 44.58 40.929 44.9805 40.929C45.3811 40.929 45.7726 41.0477 46.1056 41.2703C46.4387 41.4929 46.6982 41.8092 46.8515 42.1793C47.0047 42.5494 47.0447 42.9566 46.9665 43.3494C46.8883 43.7423 46.6953 44.1031 46.412 44.3862C46.2241 44.5744 46.001 44.7237 45.7553 44.8255C45.5097 44.9274 45.2464 44.9798 44.9805 44.9798C44.7146 44.9798 44.4513 44.9274 44.2057 44.8255C43.96 44.7237 43.7369 44.5744 43.549 44.3862Z" fill="#4BAF51"/>
<path d="M84.477 34.1543C84.1939 33.8711 84.001 33.5103 83.9229 33.1175C83.8448 32.7246 83.8849 32.3175 84.0382 31.9475C84.1915 31.5775 84.451 31.2613 84.784 31.0388C85.117 30.8163 85.5085 30.6975 85.909 30.6975C86.3095 30.6975 86.701 30.8163 87.034 31.0388C87.367 31.2613 87.6266 31.5775 87.7799 31.9475C87.9331 32.3175 87.9733 32.7246 87.8951 33.1175C87.817 33.5103 87.6242 33.8711 87.341 34.1543C87.153 34.3424 86.9297 34.4916 86.684 34.5933C86.4383 34.6951 86.175 34.7475 85.909 34.7475C85.6431 34.7475 85.3797 34.6951 85.134 34.5933C84.8883 34.4916 84.6651 34.3424 84.477 34.1543Z" fill="#4BAF51"/>
<path d="M74.245 34.1543C73.9618 33.8711 73.769 33.5103 73.6909 33.1175C73.6128 32.7246 73.6529 32.3175 73.8062 31.9475C73.9594 31.5775 74.219 31.2613 74.552 31.0388C74.885 30.8163 75.2765 30.6975 75.677 30.6975C76.0775 30.6975 76.469 30.8163 76.802 31.0388C77.135 31.2613 77.3945 31.5775 77.5478 31.9475C77.7011 32.3175 77.7412 32.7246 77.6631 33.1175C77.585 33.5103 77.3921 33.8711 77.109 34.1543C76.9209 34.3424 76.6977 34.4916 76.452 34.5933C76.2063 34.6951 75.9429 34.7475 75.677 34.7475C75.411 34.7475 75.1477 34.6951 74.902 34.5933C74.6563 34.4916 74.433 34.3424 74.245 34.1543Z" fill="#4BAF51"/>
<path d="M74.245 44.3862C73.9618 44.103 73.769 43.7422 73.6909 43.3494C73.6128 42.9566 73.6529 42.5494 73.8062 42.1794C73.9594 41.8094 74.219 41.4932 74.552 41.2707C74.885 41.0482 75.2765 40.9294 75.677 40.9294C76.0775 40.9294 76.469 41.0482 76.802 41.2707C77.135 41.4932 77.3945 41.8094 77.5478 42.1794C77.7011 42.5494 77.7412 42.9566 77.6631 43.3494C77.585 43.7422 77.3921 44.103 77.109 44.3862C76.9209 44.5743 76.6977 44.7235 76.452 44.8253C76.2063 44.9271 75.9429 44.9794 75.677 44.9794C75.411 44.9794 75.1477 44.9271 74.902 44.8253C74.6563 44.7235 74.433 44.5743 74.245 44.3862Z" fill="#4BAF51"/>
</svg>
